<svg width="512" height="376" viewBox="0 0 512 376" fill="none" xmlns="http://www.w3.org/2000/svg">
<path d="M322.876 2.57701L275.49 51.243C272.247 54.562 272.256 59.862 275.507 63.173L355.806 145.067L8.53299 145.067C3.82299 145.067 -9.904e-06 148.89 -9.69811e-06 153.6L-6.71407e-06 221.867C-6.50819e-06 226.577 3.82299 230.4 8.53299 230.4L355.806 230.4L275.507 312.294C272.264 315.605 272.256 320.896 275.49 324.215L322.876 372.881C324.48 374.536 326.682 375.467 328.986 375.467C331.29 375.467 333.492 374.528 335.096 372.881L509.577 193.681C511.19 192.026 512 189.875 512 187.733C512 185.583 511.189 183.441 509.577 181.777L335.096 2.57701C333.492 0.930012 331.29 1.60364e-05 328.986 1.61371e-05C326.682 1.62379e-05 324.48 0.930012 322.876 2.57701Z" fill="#3C91E6"/>
</svg>
